<svg width="32" height="32" viewBox="0 0 32 32" xmlns="http://www.w3.org/2000/svg">
<path fill-rule="evenodd" clip-rule="evenodd" d="M14.7132 8.18377C14.7132 9.83236 14.0584 11.4134 12.8926 12.5791C11.7269 13.7449 10.1458 14.3998 8.49725 14.3998C6.84866 14.3998 5.2676 13.7449 4.10187 12.5791C2.93615 11.4134 2.28125 9.83236 2.28125 8.18377C2.28125 6.53519 2.93615 4.95412 4.10187 3.7884C5.2676 2.62267 6.84866 1.96777 8.49725 1.96777C10.1458 1.96777 11.7269 2.62267 12.8926 3.7884C14.0584 4.95412 14.7132 6.53519 14.7132 8.18377ZM22.7153 13.0538C24.0066 13.0538 25.245 12.5408 26.1582 11.6277C27.0713 10.7146 27.5842 9.47611 27.5842 8.18477C27.5842 6.89344 27.0713 5.65498 26.1582 4.74187C25.245 3.82876 24.0066 3.31577 22.7153 3.31577C21.4239 3.31577 20.1855 3.82876 19.2723 4.74187C18.3592 5.65498 17.8463 6.89344 17.8463 8.18477C17.8463 9.47611 18.3592 10.7146 19.2723 11.6277C20.1855 12.5408 21.4239 13.0538 22.7153 13.0538ZM30.2812 22.4038C30.2812 24.4101 29.4842 26.3343 28.0655 27.753C26.6468 29.1717 24.7226 29.9688 22.7162 29.9688C20.7099 29.9688 18.7857 29.1717 17.367 27.753C15.9483 26.3343 15.1513 24.4101 15.1513 22.4038C15.1513 20.3974 15.9483 18.4732 17.367 17.0545C18.7857 15.6358 20.7099 14.8388 22.7162 14.8388C24.7226 14.8388 26.6468 15.6358 28.0655 17.0545C29.4842 18.4732 30.2812 20.3974 30.2812 22.4038ZM12.0173 22.4038C12.0173 23.3373 11.6464 24.2327 10.9863 24.8928C10.3261 25.5529 9.43081 25.9238 8.49725 25.9238C7.56369 25.9238 6.66836 25.5529 6.00823 24.8928C5.34811 24.2327 4.97725 23.3373 4.97725 22.4038C4.97725 21.4702 5.34811 20.5749 6.00823 19.9148C6.66836 19.2546 7.56369 18.8838 8.49725 18.8838C9.43081 18.8838 10.3261 19.2546 10.9863 19.9148C11.6464 20.5749 12.0173 21.4702 12.0173 22.4038Z" fill="white"/>
</svg>
