<svg width="144" height="68" viewBox="0 0 144 68" fill="none" xmlns="http://www.w3.org/2000/svg">
<path d="M15.764 25.32V10.48H8.092L7.952 13.952C7.896 15.2587 7.812 16.5 7.7 17.676C7.60667 18.8333 7.448 19.888 7.224 20.84C7.01867 21.792 6.72933 22.5853 6.356 23.22C5.98267 23.8547 5.52533 24.2747 4.984 24.48L1.064 23.92C1.77333 23.9573 2.352 23.7147 2.8 23.192C3.26667 22.6693 3.63067 21.9413 3.892 21.008C4.15333 20.0747 4.34933 18.9827 4.48 17.732C4.61067 16.4627 4.704 15.0907 4.76 13.616L4.984 7.4H19.348V25.32H15.764ZM0.392 31.172L0.42 23.92H22.176V31.172H18.816V27H3.78V31.172H0.392ZM31.9373 27.196C30.2759 27.196 28.8199 26.8693 27.5693 26.216C26.3373 25.544 25.3759 24.6293 24.6853 23.472C24.0133 22.3147 23.6773 20.9987 23.6773 19.524C23.6773 18.0307 24.0039 16.7147 24.6573 15.576C25.3293 14.4187 26.2439 13.5133 27.4013 12.86C28.5773 12.2067 29.9119 11.88 31.4053 11.88C32.8613 11.88 34.1586 12.1973 35.2973 12.832C36.4359 13.4667 37.3319 14.3627 37.9853 15.52C38.6386 16.6773 38.9653 18.04 38.9653 19.608C38.9653 19.7573 38.9559 19.9253 38.9373 20.112C38.9373 20.2987 38.9279 20.476 38.9093 20.644H26.4493V18.32H37.0613L35.6893 19.048C35.7079 18.1893 35.5306 17.4333 35.1573 16.78C34.7839 16.1267 34.2706 15.6133 33.6173 15.24C32.9826 14.8667 32.2453 14.68 31.4053 14.68C30.5466 14.68 29.7906 14.8667 29.1373 15.24C28.5026 15.6133 27.9986 16.136 27.6253 16.808C27.2706 17.4613 27.0933 18.236 27.0933 19.132V19.692C27.0933 20.588 27.2986 21.3813 27.7093 22.072C28.1199 22.7627 28.6986 23.2947 29.4453 23.668C30.1919 24.0413 31.0506 24.228 32.0213 24.228C32.8613 24.228 33.6173 24.0973 34.2893 23.836C34.9613 23.5747 35.5586 23.164 36.0813 22.604L37.9573 24.76C37.2853 25.544 36.4359 26.1507 35.4093 26.58C34.4013 26.9907 33.2439 27.196 31.9373 27.196ZM53.5174 27L48.1134 19.832L50.9694 18.068L57.6334 27H53.5174ZM42.7934 27V12.048H46.2934V27H42.7934ZM45.2574 21.008V18.096H50.3254V21.008H45.2574ZM51.3054 19.944L48.0294 19.552L53.5174 12.048H57.2694L51.3054 19.944ZM66.2738 27.196C64.7431 27.196 63.3805 26.8693 62.1858 26.216C60.9911 25.544 60.0485 24.6293 59.3578 23.472C58.6671 22.3147 58.3218 20.9987 58.3218 19.524C58.3218 18.0307 58.6671 16.7147 59.3578 15.576C60.0485 14.4187 60.9911 13.5133 62.1858 12.86C63.3805 12.2067 64.7431 11.88 66.2738 11.88C67.8231 11.88 69.1951 12.2067 70.3898 12.86C71.6031 13.5133 72.5458 14.4093 73.2178 15.548C73.9085 16.6867 74.2538 18.012 74.2538 19.524C74.2538 20.9987 73.9085 22.3147 73.2178 23.472C72.5458 24.6293 71.6031 25.544 70.3898 26.216C69.1951 26.8693 67.8231 27.196 66.2738 27.196ZM66.2738 24.2C67.1325 24.2 67.8978 24.0133 68.5698 23.64C69.2418 23.2667 69.7645 22.7253 70.1378 22.016C70.5298 21.3067 70.7258 20.476 70.7258 19.524C70.7258 18.5533 70.5298 17.7227 70.1378 17.032C69.7645 16.3227 69.2418 15.7813 68.5698 15.408C67.8978 15.0347 67.1418 14.848 66.3018 14.848C65.4431 14.848 64.6778 15.0347 64.0058 15.408C63.3525 15.7813 62.8298 16.3227 62.4378 17.032C62.0458 17.7227 61.8498 18.5533 61.8498 19.524C61.8498 20.476 62.0458 21.3067 62.4378 22.016C62.8298 22.7253 63.3525 23.2667 64.0058 23.64C64.6778 24.0133 65.4338 24.2 66.2738 24.2ZM85.9994 27.196C84.786 27.196 83.6754 26.916 82.6674 26.356C81.678 25.796 80.8847 24.956 80.2874 23.836C79.7087 22.6973 79.4194 21.26 79.4194 19.524C79.4194 17.7693 79.6994 16.332 80.2594 15.212C80.838 14.092 81.622 13.2613 82.6114 12.72C83.6007 12.16 84.73 11.88 85.9994 11.88C87.474 11.88 88.7714 12.1973 89.8914 12.832C91.03 13.4667 91.926 14.3533 92.5794 15.492C93.2514 16.6307 93.5874 17.9747 93.5874 19.524C93.5874 21.0733 93.2514 22.4267 92.5794 23.584C91.926 24.7227 91.03 25.6093 89.8914 26.244C88.7714 26.8787 87.474 27.196 85.9994 27.196ZM77.7114 32.432V12.048H81.0434V15.576L80.9314 19.552L81.2114 23.528V32.432H77.7114ZM85.6074 24.2C86.4474 24.2 87.194 24.0133 87.8474 23.64C88.5194 23.2667 89.0514 22.7253 89.4434 22.016C89.8354 21.3067 90.0314 20.476 90.0314 19.524C90.0314 18.5533 89.8354 17.7227 89.4434 17.032C89.0514 16.3227 88.5194 15.7813 87.8474 15.408C87.194 15.0347 86.4474 14.848 85.6074 14.848C84.7674 14.848 84.0114 15.0347 83.3394 15.408C82.6674 15.7813 82.1354 16.3227 81.7434 17.032C81.3514 17.7227 81.1554 18.5533 81.1554 19.524C81.1554 20.476 81.3514 21.3067 81.7434 22.016C82.1354 22.7253 82.6674 23.2667 83.3394 23.64C84.0114 24.0133 84.7674 24.2 85.6074 24.2ZM2.772 61V41.4H18.032V44.396H6.356V49.212H12.152C14.504 49.212 16.2867 49.7067 17.5 50.696C18.732 51.6667 19.348 53.0853 19.348 54.952C19.348 56.8747 18.6667 58.368 17.304 59.432C15.96 60.4773 14.056 61 11.592 61H2.772ZM6.356 58.2H11.396C12.796 58.2 13.86 57.9293 14.588 57.388C15.316 56.8467 15.68 56.0627 15.68 55.036C15.68 53.02 14.252 52.012 11.396 52.012H6.356V58.2ZM32.0138 61V57.976L31.8178 57.332V52.04C31.8178 51.0133 31.5098 50.22 30.8938 49.66C30.2778 49.0813 29.3445 48.792 28.0938 48.792C27.2538 48.792 26.4232 48.9227 25.6018 49.184C24.7992 49.4453 24.1178 49.8093 23.5578 50.276L22.1858 47.728C22.9885 47.112 23.9405 46.6547 25.0418 46.356C26.1618 46.0387 27.3192 45.88 28.5138 45.88C30.6792 45.88 32.3498 46.4027 33.5258 47.448C34.7205 48.4747 35.3178 50.0707 35.3178 52.236V61H32.0138ZM27.3098 61.196C26.1898 61.196 25.2098 61.0093 24.3698 60.636C23.5298 60.244 22.8765 59.712 22.4098 59.04C21.9618 58.3493 21.7378 57.5747 21.7378 56.716C21.7378 55.876 21.9338 55.12 22.3258 54.448C22.7365 53.776 23.3992 53.244 24.3138 52.852C25.2285 52.46 26.4418 52.264 27.9538 52.264H32.2938V54.588H28.2058C27.0112 54.588 26.2085 54.784 25.7978 55.176C25.3872 55.5493 25.1818 56.016 25.1818 56.576C25.1818 57.2107 25.4338 57.7147 25.9378 58.088C26.4418 58.4613 27.1418 58.648 28.0378 58.648C28.8965 58.648 29.6618 58.452 30.3338 58.06C31.0245 57.668 31.5192 57.0893 31.8178 56.324L32.4058 58.424C32.0698 59.3013 31.4632 59.9827 30.5858 60.468C29.7272 60.9533 28.6352 61.196 27.3098 61.196ZM37.4649 60.972L37.6329 58.032C37.7635 58.0507 37.8849 58.0693 37.9969 58.088C38.1089 58.1067 38.2115 58.116 38.3049 58.116C38.8835 58.116 39.3315 57.9387 39.6489 57.584C39.9662 57.2293 40.1995 56.7533 40.3489 56.156C40.5169 55.54 40.6289 54.8587 40.6849 54.112C40.7595 53.3467 40.8155 52.5813 40.8529 51.816L41.1049 46.048H53.2009V61H49.7009V48.064L50.5129 49.016H43.4009L44.1569 48.036L43.9609 51.984C43.9049 53.3093 43.7929 54.5413 43.6249 55.68C43.4755 56.8 43.2329 57.78 42.8969 58.62C42.5795 59.46 42.1315 60.1133 41.5529 60.58C40.9929 61.0467 40.2742 61.28 39.3969 61.28C39.1169 61.28 38.8089 61.252 38.4729 61.196C38.1555 61.14 37.8195 61.0653 37.4649 60.972ZM68.6385 61L63.2345 53.832L66.0905 52.068L72.7545 61H68.6385ZM57.9145 61V46.048H61.4145V61H57.9145ZM60.3785 55.008V52.096H65.4465V55.008H60.3785ZM66.4265 53.944L63.1505 53.552L68.6385 46.048H72.3905L66.4265 53.944ZM81.3949 61.196C79.8642 61.196 78.5016 60.8693 77.3069 60.216C76.1122 59.544 75.1696 58.6293 74.4789 57.472C73.7882 56.3147 73.4429 54.9987 73.4429 53.524C73.4429 52.0307 73.7882 50.7147 74.4789 49.576C75.1696 48.4187 76.1122 47.5133 77.3069 46.86C78.5016 46.2067 79.8642 45.88 81.3949 45.88C82.9442 45.88 84.3162 46.2067 85.5109 46.86C86.7242 47.5133 87.6669 48.4093 88.3389 49.548C89.0296 50.6867 89.3749 52.012 89.3749 53.524C89.3749 54.9987 89.0296 56.3147 88.3389 57.472C87.6669 58.6293 86.7242 59.544 85.5109 60.216C84.3162 60.8693 82.9442 61.196 81.3949 61.196ZM81.3949 58.2C82.2536 58.2 83.0189 58.0133 83.6909 57.64C84.3629 57.2667 84.8856 56.7253 85.2589 56.016C85.6509 55.3067 85.8469 54.476 85.8469 53.524C85.8469 52.5533 85.6509 51.7227 85.2589 51.032C84.8856 50.3227 84.3629 49.7813 83.6909 49.408C83.0189 49.0347 82.2629 48.848 81.4229 48.848C80.5642 48.848 79.7989 49.0347 79.1269 49.408C78.4736 49.7813 77.9509 50.3227 77.5589 51.032C77.1669 51.7227 76.9709 52.5533 76.9709 53.524C76.9709 54.476 77.1669 55.3067 77.5589 56.016C77.9509 56.7253 78.4736 57.2667 79.1269 57.64C79.7989 58.0133 80.5549 58.2 81.3949 58.2ZM92.8325 61V46.048H96.3325V52.124H103.864V46.048H107.364V61H103.864V55.092H96.3325V61H92.8325ZM117.431 61.28C116.05 61.28 114.696 61.084 113.371 60.692C112.064 60.2813 110.963 59.7213 110.067 59.012L111.607 56.184C112.316 56.7627 113.175 57.2293 114.183 57.584C115.21 57.9387 116.274 58.116 117.375 58.116C118.663 58.116 119.671 57.8453 120.399 57.304C121.146 56.7627 121.519 56.0347 121.519 55.12C121.519 54.504 121.36 53.9627 121.043 53.496C120.744 53.0293 120.203 52.6747 119.419 52.432C118.654 52.1893 117.599 52.068 116.255 52.068H111.523L112.531 41.4H124.039V44.452H113.875L115.779 42.716L115.023 50.696L113.119 48.988H117.067C119.008 48.988 120.567 49.2493 121.743 49.772C122.938 50.276 123.806 50.9853 124.347 51.9C124.907 52.796 125.187 53.8227 125.187 54.98C125.187 56.1187 124.907 57.164 124.347 58.116C123.787 59.068 122.928 59.8333 121.771 60.412C120.632 60.9907 119.186 61.28 117.431 61.28ZM135.771 61.28C133.997 61.28 132.476 60.9067 131.207 60.16C129.937 59.3947 128.967 58.2933 128.295 56.856C127.623 55.4187 127.287 53.6453 127.287 51.536C127.287 49.296 127.688 47.4013 128.491 45.852C129.312 44.3027 130.441 43.1267 131.879 42.324C133.335 41.5213 135.005 41.12 136.891 41.12C137.88 41.12 138.823 41.2227 139.719 41.428C140.633 41.6333 141.408 41.9507 142.043 42.38L140.699 45.124C140.157 44.7693 139.569 44.5267 138.935 44.396C138.319 44.2467 137.665 44.172 136.975 44.172C135.127 44.172 133.661 44.7413 132.579 45.88C131.496 47.0187 130.955 48.6987 130.955 50.92C130.955 51.2747 130.964 51.6947 130.983 52.18C131.001 52.6467 131.067 53.1227 131.179 53.608L130.059 52.376C130.395 51.6107 130.852 50.976 131.431 50.472C132.028 49.9493 132.728 49.5573 133.531 49.296C134.352 49.0347 135.239 48.904 136.191 48.904C137.479 48.904 138.627 49.156 139.635 49.66C140.643 50.1453 141.445 50.8453 142.043 51.76C142.64 52.656 142.939 53.7107 142.939 54.924C142.939 56.212 142.621 57.332 141.987 58.284C141.352 59.236 140.493 59.9733 139.411 60.496C138.328 61.0187 137.115 61.28 135.771 61.28ZM135.575 58.424C136.321 58.424 136.984 58.2933 137.563 58.032C138.141 57.752 138.589 57.36 138.907 56.856C139.243 56.352 139.411 55.764 139.411 55.092C139.411 54.0653 139.056 53.2533 138.347 52.656C137.637 52.0587 136.685 51.76 135.491 51.76C134.707 51.76 134.016 51.9093 133.419 52.208C132.84 52.488 132.373 52.88 132.019 53.384C131.683 53.888 131.515 54.4667 131.515 55.12C131.515 55.7173 131.673 56.268 131.991 56.772C132.308 57.276 132.765 57.6773 133.363 57.976C133.979 58.2747 134.716 58.424 135.575 58.424Z" fill="black"/>
</svg>
