<svg width="144" height="68" viewBox="0 0 144 68" fill="none" xmlns="http://www.w3.org/2000/svg">
<path d="M15.764 25.3198V10.4798H8.092L7.952 13.9518C7.896 15.2584 7.812 16.4998 7.7 17.6758C7.60667 18.8331 7.448 19.8878 7.224 20.8398C7.01867 21.7918 6.72933 22.5851 6.356 23.2198C5.98267 23.8544 5.52533 24.2744 4.984 24.4798L1.064 23.9198C1.77333 23.9571 2.352 23.7144 2.8 23.1918C3.26667 22.6691 3.63067 21.9411 3.892 21.0078C4.15333 20.0744 4.34933 18.9824 4.48 17.7318C4.61067 16.4624 4.704 15.0904 4.76 13.6158L4.984 7.39975H19.348V25.3198H15.764ZM0.392 31.1718L0.42 23.9198H22.176V31.1718H18.816V26.9998H3.78V31.1718H0.392ZM31.9373 27.1958C30.2759 27.1958 28.8199 26.8691 27.5693 26.2158C26.3373 25.5438 25.3759 24.6291 24.6853 23.4718C24.0133 22.3144 23.6773 20.9984 23.6773 19.5238C23.6773 18.0304 24.0039 16.7144 24.6573 15.5758C25.3293 14.4184 26.2439 13.5131 27.4013 12.8598C28.5773 12.2064 29.9119 11.8798 31.4053 11.8798C32.8613 11.8798 34.1586 12.1971 35.2973 12.8318C36.4359 13.4664 37.3319 14.3624 37.9853 15.5198C38.6386 16.6771 38.9653 18.0398 38.9653 19.6078C38.9653 19.7571 38.9559 19.9251 38.9373 20.1118C38.9373 20.2984 38.9279 20.4758 38.9093 20.6438H26.4493V18.3198H37.0613L35.6893 19.0478C35.7079 18.1891 35.5306 17.4331 35.1573 16.7798C34.7839 16.1264 34.2706 15.6131 33.6173 15.2398C32.9826 14.8664 32.2453 14.6798 31.4053 14.6798C30.5466 14.6798 29.7906 14.8664 29.1373 15.2398C28.5026 15.6131 27.9986 16.1358 27.6253 16.8078C27.2706 17.4611 27.0933 18.2358 27.0933 19.1318V19.6918C27.0933 20.5878 27.2986 21.3811 27.7093 22.0718C28.1199 22.7624 28.6986 23.2944 29.4453 23.6678C30.1919 24.0411 31.0506 24.2278 32.0213 24.2278C32.8613 24.2278 33.6173 24.0971 34.2893 23.8358C34.9613 23.5744 35.5586 23.1638 36.0813 22.6038L37.9573 24.7598C37.2853 25.5438 36.4359 26.1504 35.4093 26.5798C34.4013 26.9904 33.2439 27.1958 31.9373 27.1958ZM53.5174 26.9998L48.1134 19.8318L50.9694 18.0678L57.6334 26.9998H53.5174ZM42.7934 26.9998V12.0478H46.2934V26.9998H42.7934ZM45.2574 21.0078V18.0958H50.3254V21.0078H45.2574ZM51.3054 19.9438L48.0294 19.5518L53.5174 12.0478H57.2694L51.3054 19.9438ZM66.2738 27.1958C64.7431 27.1958 63.3805 26.8691 62.1858 26.2158C60.9911 25.5438 60.0485 24.6291 59.3578 23.4718C58.6671 22.3144 58.3218 20.9984 58.3218 19.5238C58.3218 18.0304 58.6671 16.7144 59.3578 15.5758C60.0485 14.4184 60.9911 13.5131 62.1858 12.8598C63.3805 12.2064 64.7431 11.8798 66.2738 11.8798C67.8231 11.8798 69.1951 12.2064 70.3898 12.8598C71.6031 13.5131 72.5458 14.4091 73.2178 15.5478C73.9085 16.6864 74.2538 18.0118 74.2538 19.5238C74.2538 20.9984 73.9085 22.3144 73.2178 23.4718C72.5458 24.6291 71.6031 25.5438 70.3898 26.2158C69.1951 26.8691 67.8231 27.1958 66.2738 27.1958ZM66.2738 24.1998C67.1325 24.1998 67.8978 24.0131 68.5698 23.6398C69.2418 23.2664 69.7645 22.7251 70.1378 22.0158C70.5298 21.3064 70.7258 20.4758 70.7258 19.5238C70.7258 18.5531 70.5298 17.7224 70.1378 17.0318C69.7645 16.3224 69.2418 15.7811 68.5698 15.4078C67.8978 15.0344 67.1418 14.8478 66.3018 14.8478C65.4431 14.8478 64.6778 15.0344 64.0058 15.4078C63.3525 15.7811 62.8298 16.3224 62.4378 17.0318C62.0458 17.7224 61.8498 18.5531 61.8498 19.5238C61.8498 20.4758 62.0458 21.3064 62.4378 22.0158C62.8298 22.7251 63.3525 23.2664 64.0058 23.6398C64.6778 24.0131 65.4338 24.1998 66.2738 24.1998ZM85.9994 27.1958C84.786 27.1958 83.6754 26.9158 82.6674 26.3558C81.678 25.7958 80.8847 24.9558 80.2874 23.8358C79.7087 22.6971 79.4194 21.2598 79.4194 19.5238C79.4194 17.7691 79.6994 16.3318 80.2594 15.2118C80.838 14.0918 81.622 13.2611 82.6114 12.7198C83.6007 12.1598 84.73 11.8798 85.9994 11.8798C87.474 11.8798 88.7714 12.1971 89.8914 12.8318C91.03 13.4664 91.926 14.3531 92.5794 15.4918C93.2514 16.6304 93.5874 17.9744 93.5874 19.5238C93.5874 21.0731 93.2514 22.4264 92.5794 23.5838C91.926 24.7224 91.03 25.6091 89.8914 26.2438C88.7714 26.8784 87.474 27.1958 85.9994 27.1958ZM77.7114 32.4318V12.0478H81.0434V15.5758L80.9314 19.5518L81.2114 23.5278V32.4318H77.7114ZM85.6074 24.1998C86.4474 24.1998 87.194 24.0131 87.8474 23.6398C88.5194 23.2664 89.0514 22.7251 89.4434 22.0158C89.8354 21.3064 90.0314 20.4758 90.0314 19.5238C90.0314 18.5531 89.8354 17.7224 89.4434 17.0318C89.0514 16.3224 88.5194 15.7811 87.8474 15.4078C87.194 15.0344 86.4474 14.8478 85.6074 14.8478C84.7674 14.8478 84.0114 15.0344 83.3394 15.4078C82.6674 15.7811 82.1354 16.3224 81.7434 17.0318C81.3514 17.7224 81.1554 18.5531 81.1554 19.5238C81.1554 20.4758 81.3514 21.3064 81.7434 22.0158C82.1354 22.7251 82.6674 23.2664 83.3394 23.6398C84.0114 24.0131 84.7674 24.1998 85.6074 24.1998ZM2.772 60.9998V41.3998H18.032V44.3958H6.356V49.2118H12.152C14.504 49.2118 16.2867 49.7064 17.5 50.6958C18.732 51.6664 19.348 53.0851 19.348 54.9518C19.348 56.8744 18.6667 58.3678 17.304 59.4318C15.96 60.4771 14.056 60.9998 11.592 60.9998H2.772ZM6.356 58.1998H11.396C12.796 58.1998 13.86 57.9291 14.588 57.3878C15.316 56.8464 15.68 56.0624 15.68 55.0358C15.68 53.0198 14.252 52.0118 11.396 52.0118H6.356V58.1998ZM32.0138 60.9998V57.9758L31.8178 57.3318V52.0398C31.8178 51.0131 31.5098 50.2198 30.8938 49.6598C30.2778 49.0811 29.3445 48.7918 28.0938 48.7918C27.2538 48.7918 26.4232 48.9224 25.6018 49.1838C24.7992 49.4451 24.1178 49.8091 23.5578 50.2758L22.1858 47.7278C22.9885 47.1118 23.9405 46.6544 25.0418 46.3558C26.1618 46.0384 27.3192 45.8798 28.5138 45.8798C30.6792 45.8798 32.3498 46.4024 33.5258 47.4478C34.7205 48.4744 35.3178 50.0704 35.3178 52.2358V60.9998H32.0138ZM27.3098 61.1958C26.1898 61.1958 25.2098 61.0091 24.3698 60.6358C23.5298 60.2438 22.8765 59.7118 22.4098 59.0398C21.9618 58.3491 21.7378 57.5744 21.7378 56.7158C21.7378 55.8758 21.9338 55.1198 22.3258 54.4478C22.7365 53.7758 23.3992 53.2438 24.3138 52.8518C25.2285 52.4598 26.4418 52.2638 27.9538 52.2638H32.2938V54.5878H28.2058C27.0112 54.5878 26.2085 54.7838 25.7978 55.1758C25.3872 55.5491 25.1818 56.0158 25.1818 56.5758C25.1818 57.2104 25.4338 57.7144 25.9378 58.0878C26.4418 58.4611 27.1418 58.6478 28.0378 58.6478C28.8965 58.6478 29.6618 58.4518 30.3338 58.0598C31.0245 57.6678 31.5192 57.0891 31.8178 56.3238L32.4058 58.4238C32.0698 59.3011 31.4632 59.9824 30.5858 60.4678C29.7272 60.9531 28.6352 61.1958 27.3098 61.1958ZM37.4649 60.9718L37.6329 58.0318C37.7635 58.0504 37.8849 58.0691 37.9969 58.0878C38.1089 58.1064 38.2115 58.1158 38.3049 58.1158C38.8835 58.1158 39.3315 57.9384 39.6489 57.5838C39.9662 57.2291 40.1995 56.7531 40.3489 56.1558C40.5169 55.5398 40.6289 54.8584 40.6849 54.1118C40.7595 53.3464 40.8155 52.5811 40.8529 51.8158L41.1049 46.0478H53.2009V60.9998H49.7009V48.0638L50.5129 49.0158H43.4009L44.1569 48.0358L43.9609 51.9838C43.9049 53.3091 43.7929 54.5411 43.6249 55.6798C43.4755 56.7998 43.2329 57.7798 42.8969 58.6198C42.5795 59.4598 42.1315 60.1131 41.5529 60.5798C40.9929 61.0464 40.2742 61.2798 39.3969 61.2798C39.1169 61.2798 38.8089 61.2518 38.4729 61.1958C38.1555 61.1398 37.8195 61.0651 37.4649 60.9718ZM68.6385 60.9998L63.2345 53.8318L66.0905 52.0678L72.7545 60.9998H68.6385ZM57.9145 60.9998V46.0478H61.4145V60.9998H57.9145ZM60.3785 55.0078V52.0958H65.4465V55.0078H60.3785ZM66.4265 53.9438L63.1505 53.5518L68.6385 46.0478H72.3905L66.4265 53.9438ZM81.3949 61.1958C79.8642 61.1958 78.5016 60.8691 77.3069 60.2158C76.1122 59.5438 75.1696 58.6291 74.4789 57.4718C73.7882 56.3144 73.4429 54.9984 73.4429 53.5238C73.4429 52.0304 73.7882 50.7144 74.4789 49.5758C75.1696 48.4184 76.1122 47.5131 77.3069 46.8598C78.5016 46.2064 79.8642 45.8798 81.3949 45.8798C82.9442 45.8798 84.3162 46.2064 85.5109 46.8598C86.7242 47.5131 87.6669 48.4091 88.3389 49.5478C89.0296 50.6864 89.3749 52.0118 89.3749 53.5238C89.3749 54.9984 89.0296 56.3144 88.3389 57.4718C87.6669 58.6291 86.7242 59.5438 85.5109 60.2158C84.3162 60.8691 82.9442 61.1958 81.3949 61.1958ZM81.3949 58.1998C82.2536 58.1998 83.0189 58.0131 83.6909 57.6398C84.3629 57.2664 84.8856 56.7251 85.2589 56.0158C85.6509 55.3064 85.8469 54.4758 85.8469 53.5238C85.8469 52.5531 85.6509 51.7224 85.2589 51.0318C84.8856 50.3224 84.3629 49.7811 83.6909 49.4078C83.0189 49.0344 82.2629 48.8478 81.4229 48.8478C80.5642 48.8478 79.7989 49.0344 79.1269 49.4078C78.4736 49.7811 77.9509 50.3224 77.5589 51.0318C77.1669 51.7224 76.9709 52.5531 76.9709 53.5238C76.9709 54.4758 77.1669 55.3064 77.5589 56.0158C77.9509 56.7251 78.4736 57.2664 79.1269 57.6398C79.7989 58.0131 80.5549 58.1998 81.3949 58.1998ZM92.8325 60.9998V46.0478H96.3325V52.1238H103.864V46.0478H107.364V60.9998H103.864V55.0918H96.3325V60.9998H92.8325ZM117.431 61.2798C116.05 61.2798 114.696 61.0838 113.371 60.6918C112.064 60.2811 110.963 59.7211 110.067 59.0118L111.607 56.1838C112.316 56.7624 113.175 57.2291 114.183 57.5838C115.21 57.9384 116.274 58.1158 117.375 58.1158C118.663 58.1158 119.671 57.8451 120.399 57.3038C121.146 56.7624 121.519 56.0344 121.519 55.1198C121.519 54.5038 121.36 53.9624 121.043 53.4958C120.744 53.0291 120.203 52.6744 119.419 52.4318C118.654 52.1891 117.599 52.0678 116.255 52.0678H111.523L112.531 41.3998H124.039V44.4518H113.875L115.779 42.7158L115.023 50.6958L113.119 48.9878H117.067C119.008 48.9878 120.567 49.2491 121.743 49.7718C122.938 50.2758 123.806 50.9851 124.347 51.8998C124.907 52.7958 125.187 53.8224 125.187 54.9798C125.187 56.1184 124.907 57.1638 124.347 58.1158C123.787 59.0678 122.928 59.8331 121.771 60.4118C120.632 60.9904 119.186 61.2798 117.431 61.2798ZM135.771 61.2798C133.997 61.2798 132.476 60.9064 131.207 60.1598C129.937 59.3944 128.967 58.2931 128.295 56.8558C127.623 55.4184 127.287 53.6451 127.287 51.5358C127.287 49.2958 127.688 47.4011 128.491 45.8518C129.312 44.3024 130.441 43.1264 131.879 42.3238C133.335 41.5211 135.005 41.1198 136.891 41.1198C137.88 41.1198 138.823 41.2224 139.719 41.4278C140.633 41.6331 141.408 41.9504 142.043 42.3798L140.699 45.1238C140.157 44.7691 139.569 44.5264 138.935 44.3958C138.319 44.2464 137.665 44.1718 136.975 44.1718C135.127 44.1718 133.661 44.7411 132.579 45.8798C131.496 47.0184 130.955 48.6984 130.955 50.9198C130.955 51.2744 130.964 51.6944 130.983 52.1798C131.001 52.6464 131.067 53.1224 131.179 53.6078L130.059 52.3758C130.395 51.6104 130.852 50.9758 131.431 50.4718C132.028 49.9491 132.728 49.5571 133.531 49.2958C134.352 49.0344 135.239 48.9038 136.191 48.9038C137.479 48.9038 138.627 49.1558 139.635 49.6598C140.643 50.1451 141.445 50.8451 142.043 51.7598C142.64 52.6558 142.939 53.7104 142.939 54.9238C142.939 56.2118 142.621 57.3318 141.987 58.2838C141.352 59.2358 140.493 59.9731 139.411 60.4958C138.328 61.0184 137.115 61.2798 135.771 61.2798ZM135.575 58.4238C136.321 58.4238 136.984 58.2931 137.563 58.0318C138.141 57.7518 138.589 57.3598 138.907 56.8558C139.243 56.3518 139.411 55.7638 139.411 55.0918C139.411 54.0651 139.056 53.2531 138.347 52.6558C137.637 52.0584 136.685 51.7598 135.491 51.7598C134.707 51.7598 134.016 51.9091 133.419 52.2078C132.84 52.4878 132.373 52.8798 132.019 53.3838C131.683 53.8878 131.515 54.4664 131.515 55.1198C131.515 55.7171 131.673 56.2678 131.991 56.7718C132.308 57.2758 132.765 57.6771 133.363 57.9758C133.979 58.2744 134.716 58.4238 135.575 58.4238Z" fill="white"/>
</svg>
