<svg width="32" height="32" viewBox="0 0 32 32" fill="none" xmlns="http://www.w3.org/2000/svg">
<g clip-path="url(#clip0_1154_257)">
<path d="M31.3735 2.62148C30.8586 2.14979 30.1269 1.99261 29.4638 2.21117L1.32695 11.4862C0.56014 11.739 0.0401393 12.4235 0.00220172 13.2299C-0.0356734 14.0364 0.417765 14.7668 1.15739 15.0904L6.80772 17.5626L23.4434 8.32987C23.8497 8.10437 24.3596 8.20974 24.6434 8.57743C24.9272 8.94525 24.8996 9.46518 24.5786 9.80093L14.2075 20.645L12.0805 28.3297L17.1855 24.5071L23.2224 29.447C23.574 29.7349 24.0037 29.885 24.4419 29.885C24.6506 29.885 24.8612 29.851 25.0661 29.7815C25.7014 29.566 26.1724 29.0475 26.326 28.3944L31.9488 4.48792C32.1086 3.80836 31.8883 3.09317 31.3735 2.62148Z" fill="white"/>
<path d="M8.2793 18.8955L10.2331 27.9575L12.4589 19.9162C12.5002 19.7665 12.5781 19.6295 12.6853 19.5174L18.9371 12.9805L8.2793 18.8955Z" fill="white"/>
</g>
<defs>
<clipPath id="clip0_1154_257">
<rect width="32" height="32" fill="white"/>
</clipPath>
</defs>
</svg>
